<?xml version="1.0" standalone="no"?>
<!DOCTYPE svg PUBLIC "-//W3C//DTD SVG 20010904//EN"
 "http://www.w3.org/TR/2001/REC-SVG-20010904/DTD/svg10.dtd">
<svg version="1.0" xmlns="http://www.w3.org/2000/svg"
 width="1178.000000pt" height="1280.000000pt" viewBox="0 0 1178.000000 1280.000000"
 preserveAspectRatio="xMidYMid meet">
<metadata>
Created by potrace 1.15, written by Peter Selinger 2001-2017
</metadata>
<g transform="translate(0.000000,1280.000000) scale(0.100000,-0.100000)"
fill="#ffffff" stroke="none">
<path d="M5585 12260 c-202 -10 -571 -53 -735 -86 -418 -84 -841 -206 -1115
-322 -457 -193 -841 -408 -1120 -626 -180 -140 -376 -319 -482 -439 -505 -567
-782 -966 -1019 -1467 -55 -118 -121 -251 -145 -295 -75 -135 -123 -257 -234
-595 -202 -617 -269 -1054 -268 -1755 0 -353 21 -560 99 -990 48 -259 100
-462 230 -902 87 -294 310 -818 428 -1007 35 -55 112 -184 171 -286 60 -102
138 -225 175 -275 37 -49 80 -110 97 -135 17 -25 57 -70 88 -100 31 -30 74
-80 95 -110 46 -68 156 -178 275 -278 50 -42 158 -141 240 -222 145 -140 301
-269 415 -343 30 -19 95 -67 144 -105 171 -135 662 -405 906 -498 195 -75 569
-196 675 -219 122 -26 488 -83 750 -116 246 -30 850 -39 1045 -15 584 73 927
144 1236 254 387 139 883 388 1204 606 250 169 647 549 781 748 33 48 72 102
88 120 32 37 107 161 156 258 39 78 70 176 79 247 6 46 3 59 -23 108 -51 95
-98 153 -136 165 -58 19 -175 14 -241 -11 -32 -12 -186 -87 -343 -166 -511
-260 -740 -357 -1111 -472 -276 -85 -369 -101 -630 -108 -153 -4 -248 -2 -295
6 -190 32 -411 124 -546 228 -355 273 -546 406 -675 471 -32 16 -124 49 -204
72 l-145 44 -210 6 c-186 5 -216 8 -263 28 -132 55 -222 140 -222 210 0 39 40
86 129 153 89 68 111 100 111 165 0 34 -5 58 -15 68 -37 36 -107 87 -197 142
-105 63 -127 88 -109 122 12 22 104 69 191 97 139 44 145 126 21 294 -74 101
-157 232 -170 270 -6 19 -11 49 -11 67 0 27 6 36 29 49 47 24 168 38 277 32
152 -9 215 13 407 141 77 50 120 90 204 184 175 195 242 305 251 414 8 109
-42 190 -300 483 -122 138 -177 219 -306 450 -84 152 -275 536 -318 639 -15
37 -33 74 -40 82 -23 28 -132 355 -144 432 -13 92 -5 152 44 309 63 205 105
382 121 509 33 271 55 346 150 516 141 252 408 497 782 718 308 182 654 283
1323 385 307 47 570 58 642 27 43 -18 118 -107 118 -139 1 -12 7 -40 15 -61
l14 -39 -45 -40 c-61 -54 -78 -95 -60 -150 9 -29 12 -93 11 -202 -2 -153 -4
-167 -44 -320 -51 -195 -91 -315 -140 -420 -42 -91 -91 -138 -188 -183 -75
-34 -214 -42 -353 -18 -176 29 -404 56 -525 63 -133 7 -169 -3 -194 -50 -11
-22 -11 -32 5 -74 23 -61 194 -291 304 -408 97 -104 199 -252 266 -387 26 -51
57 -113 69 -138 32 -61 65 -197 65 -262 0 -84 -19 -224 -45 -328 -13 -52 -38
-158 -55 -235 -17 -77 -44 -185 -60 -240 -87 -306 -101 -361 -106 -414 -5 -46
-3 -60 10 -74 54 -54 166 -21 393 116 185 112 572 318 658 350 107 41 219 62
289 53 64 -8 207 -61 457 -169 303 -132 395 -183 495 -279 74 -71 148 -79 204
-23 24 24 25 30 23 133 -1 109 -35 270 -82 389 -10 27 -35 120 -55 208 -21 88
-56 226 -77 306 -61 223 -78 312 -89 461 -19 259 9 347 166 527 54 63 121 141
149 175 27 34 102 117 167 186 122 128 142 160 116 187 -31 30 -151 42 -235
23 -23 -5 -83 -16 -135 -24 -51 -8 -194 -33 -318 -56 -211 -40 -234 -42 -365
-38 -126 4 -146 7 -199 31 -62 29 -120 74 -149 116 -28 42 -57 129 -67 200 -5
36 -23 111 -40 166 -39 131 -60 249 -60 346 0 43 -5 112 -11 154 -11 70 -10
80 15 159 14 46 26 93 26 104 0 39 -22 72 -54 81 -26 6 -31 12 -29 36 1 15 12
39 25 52 27 29 89 63 116 63 50 0 509 -174 882 -335 222 -96 363 -143 451
-150 101 -8 122 1 189 80 40 49 41 51 35 105 -13 107 -55 186 -189 357 -118
152 -488 524 -606 610 -185 135 -417 291 -552 371 -330 196 -787 397 -1132
497 -111 32 -359 82 -466 94 -47 5 -139 17 -205 25 -66 8 -178 18 -250 21 -71
4 -184 13 -250 20 -161 19 -395 25 -590 15z"/>
</g>
</svg>
